<svg width="24.000000" height="24.000000" viewBox="0 0 24 24" fill="none" xmlns="http://www.w3.org/2000/svg" xmlns:xlink="http://www.w3.org/1999/xlink">
	<desc>
			Created with Pixso.
	</desc>
	<defs/>
	<path id="Vector" d="M14 6.99C14 5.14 13.25 3.36 11.94 2.05C10.63 0.73 8.85 0 7 0C5.14 0 3.35 0.73 2.04 2.05C0.73 3.36 0 5.14 0 6.99C0 10.96 2.25 15.48 5.39 16.67C5.17 17.04 5.03 17.44 5 17.86C5 19.43 6.48 20.13 7.57 20.64C8.17 20.92 9 21.3 9 21.6C8.91 21.91 8.77 22.2 8.57 22.45C8.5 22.56 8.45 22.68 8.42 22.81C8.4 22.94 8.4 23.07 8.43 23.2C8.46 23.33 8.51 23.45 8.59 23.56C8.66 23.67 8.76 23.76 8.87 23.83C9.09 23.97 9.36 24.02 9.62 23.96C9.75 23.94 9.87 23.89 9.98 23.81C10.09 23.73 10.17 23.64 10.25 23.53C10.67 22.97 10.93 22.3 11 21.6C11 20.03 9.5 19.33 8.42 18.82C7.82 18.54 7 18.16 6.99 17.96C7.14 17.6 7.33 17.26 7.55 16.94C11.22 16.46 14 11.39 14 6.99ZM9.17 10.46C9.63 9.71 9.91 8.87 10 7.99C10 7.73 10.1 7.47 10.28 7.28C10.47 7.1 10.73 6.99 11 6.99C11.26 6.99 11.51 7.1 11.7 7.28C11.89 7.47 12 7.73 12 7.99C11.91 9.25 11.53 10.46 10.86 11.52C10.79 11.63 10.71 11.73 10.6 11.81C10.49 11.88 10.37 11.94 10.24 11.97C10.11 12 9.98 12 9.85 11.98C9.72 11.96 9.6 11.91 9.49 11.84C9.37 11.77 9.28 11.68 9.2 11.57C9.12 11.47 9.07 11.35 9.04 11.22C9.01 11.09 9 10.96 9.03 10.83C9.05 10.7 9.1 10.57 9.17 10.46L9.17 10.46ZM19.5 18.58C18.81 18.22 18.1 17.84 18.01 17.42C17.96 17.23 17.99 16.79 18.53 15.94C21.69 15.49 24 11.02 24 6.99C24.02 6.2 23.89 5.41 23.59 4.67C23.3 3.92 22.86 3.25 22.3 2.69C21.74 2.13 21.06 1.69 20.32 1.39C19.58 1.1 18.78 0.97 18 1C16.75 0.98 15.53 1.34 14.5 2.03C15.47 3.5 16 5.23 16 6.99C15.94 9.37 15.33 11.71 14.21 13.8C14.78 14.59 15.53 15.22 16.41 15.64C16.04 16.32 15.92 17.11 16.06 17.87C16.36 19.18 17.57 19.83 18.55 20.34C19.17 20.67 19.86 21.05 19.97 21.41C20 21.8 19.89 22.18 19.65 22.49C19.59 22.6 19.54 22.73 19.53 22.86C19.51 22.99 19.52 23.12 19.55 23.25C19.58 23.38 19.64 23.5 19.72 23.6C19.8 23.71 19.9 23.8 20.02 23.86C20.13 23.93 20.26 23.97 20.39 23.99C20.52 24 20.65 24 20.78 23.96C20.91 23.92 21.03 23.87 21.13 23.78C21.24 23.71 21.32 23.6 21.39 23.49C21.64 23.11 21.83 22.68 21.92 22.23C22 21.78 22 21.31 21.89 20.86C21.67 20.34 21.34 19.87 20.93 19.47C20.52 19.08 20.03 18.78 19.5 18.58ZM19.17 10.46C19.63 9.71 19.91 8.87 20 7.99C20 7.73 20.1 7.47 20.28 7.28C20.47 7.1 20.73 6.99 21 6.99C21.26 6.99 21.51 7.1 21.7 7.28C21.89 7.47 22 7.73 22 7.99C21.91 9.25 21.52 10.46 20.86 11.52C20.72 11.75 20.5 11.91 20.24 11.97C19.98 12.03 19.71 11.98 19.48 11.84C19.26 11.7 19.1 11.48 19.03 11.22C18.98 10.96 19.03 10.69 19.17 10.46L19.17 10.46Z" fill="#4C4C4C" fill-opacity="1.000000" fill-rule="nonzero"/>
</svg>
