<svg width="24.000000" height="20.000000" viewBox="0 0 24 20" fill="none" xmlns="http://www.w3.org/2000/svg" xmlns:xlink="http://www.w3.org/1999/xlink">
	<desc>
			Created with Pixso.
	</desc>
	<defs/>
	<path id="Union" d="M16 2C16 0.894531 15.1016 0 14 0L10 0C8.89844 0 8 0.894531 8 2L8 4L4 4C1.78906 4 0 5.78906 0 8L0 16C0 18.2109 1.78906 20 4 20L20 20C22.2109 20 24 18.2109 24 16L24 8C24 5.78906 22.2109 4 20 4L16 4L16 2ZM14 4L14 2L10 2L10 4L14 4ZM13 11L13 9C13 8.44922 12.5547 8 12 8C11.4453 8 11 8.44922 11 9L11 11L9 11C8.44531 11 8 11.4492 8 12C8 12.5508 8.44531 13 9 13L11 13L11 15C11 15.5508 11.4453 16 12 16C12.5547 16 13 15.5508 13 15L13 13L15 13C15.5547 13 16 12.5508 16 12C16 11.4492 15.5547 11 15 11L13 11Z" clip-rule="evenodd" fill="#4C4C4C" fill-opacity="1.000000" fill-rule="evenodd"/>
</svg>
